<svg fill="none" height="100%" viewbox="0 0 351 64" width="100%" xmlns="http://www.w3.org/2000/svg">
<path clip-rule="evenodd" d="M68.1289 17.2717C68.1289 18.1895 67.3848 18.9336 66.467 18.9336H36.5574C35.6396 18.9336 34.8955 19.6777 34.8955 20.5955V24.4972C34.8955 25.4151 35.6396 26.1592 36.5574 26.1592H62.3381C63.2559 26.1592 64 26.9033 64 27.8211V43.1779C64 44.0958 63.2559 44.8398 62.3381 44.8398H28.6932C27.7753 44.8398 27.0312 45.5839 27.0312 46.5018V62.3381C27.0312 63.2559 26.2872 64 25.3693 64H1.66194C0.744075 64 0 63.2559 0 62.3381V27.5399C0 26.622 0.744076 25.8779 1.66194 25.8779H10.717C11.6348 25.8779 12.3789 25.1339 12.3789 24.216V20.8299C12.3789 19.912 11.6348 19.168 10.717 19.168H1.66194C0.744075 19.168 0 18.4239 0 17.506V1.66194C0 0.744076 0.744076 0 1.66194 0H66.467C67.3848 0 68.1289 0.744076 68.1289 1.66194V17.2717ZM21.6776 33.6328C20.7597 33.6328 20.0156 34.3769 20.0156 35.2948V40.2179C20.0156 41.1358 20.7597 41.8799 21.6776 41.8799H25.4181C26.336 41.8799 27.0801 41.1358 27.0801 40.2179V35.2948C27.0801 34.3769 26.336 33.6328 25.4181 33.6328H21.6776ZM30.1049 32.0241C29.4558 32.6731 29.4558 33.7254 30.1049 34.3744L33.5864 37.856C34.2355 38.505 35.2879 38.505 35.9369 37.8559L38.5818 35.2104C39.2308 34.5613 39.2307 33.5091 38.5816 32.8601L35.1 29.3791C34.4509 28.7301 33.3987 28.7302 32.7497 29.3792L30.1049 32.0241ZM8.51513 32.8599C7.86605 33.5089 7.86611 34.5613 8.51524 35.2103L11.1607 37.8552C11.8098 38.5042 12.862 38.5041 13.511 37.855L16.992 34.3734C17.641 33.7244 17.6409 32.6722 16.9919 32.0232L14.347 29.3783C13.698 28.7293 12.6457 28.7293 11.9967 29.3783L8.51513 32.8599ZM8.12523 10.1646C7.47628 10.8137 7.47637 11.8659 8.12545 12.5149L11.6071 15.9959C12.2561 16.6449 13.3083 16.6448 13.9573 15.9958L16.6022 13.351C17.2512 12.7019 17.2512 11.6496 16.6022 11.0006L13.1206 7.51903C12.4715 6.86996 11.4192 6.87001 10.7701 7.51915L8.12523 10.1646ZM30.1095 10.6032C29.4606 11.2522 29.4607 12.3044 30.1096 12.9534L32.7545 15.5983C33.4035 16.2473 34.4558 16.2473 35.1049 15.5983L38.5864 12.1167C39.2355 11.4676 39.2355 10.4152 38.5863 9.76624L35.9409 7.12133C35.2918 6.47237 34.2395 6.47246 33.5906 7.12154L30.1095 10.6032ZM21.6463 3.09766C20.7285 3.09766 19.9844 3.84173 19.9844 4.7596V9.68279C19.9844 10.6007 20.7285 11.3447 21.6463 11.3447H25.3869C26.3048 11.3447 27.0488 10.6007 27.0488 9.68279V4.7596C27.0488 3.84173 26.3048 3.09766 25.3869 3.09766H21.6463Z" fill="currentColor" fill-rule="evenodd"></path>
<path d="M350.214 45.0003H342.276C341.898 44.3283 341.604 43.0053 341.394 41.0313C339.21 44.1813 335.724 45.7563 330.936 45.7563C327.366 45.7563 324.51 44.8953 322.368 43.1733C320.268 41.4513 319.218 39.0573 319.218 35.9913C319.218 30.0693 323.376 26.6883 331.692 25.8483L336.606 25.4073C338.244 25.1973 339.42 24.8193 340.134 24.2733C340.848 23.6853 341.205 22.8243 341.205 21.6903C341.205 20.3043 340.743 19.2963 339.819 18.6663C338.937 17.9943 337.425 17.6583 335.283 17.6583C332.973 17.6583 331.314 18.0573 330.306 18.8553C329.298 19.6113 328.71 20.9343 328.542 22.8243H320.73C321.192 15.4323 326.064 11.7363 335.346 11.7363C344.376 11.7363 348.891 14.9913 348.891 21.5013V38.8263C348.891 41.6823 349.332 43.7403 350.214 45.0003ZM332.826 40.0863C335.304 40.0863 337.32 39.4143 338.874 38.0703C340.428 36.6843 341.205 34.7103 341.205 32.1483V29.1873C340.449 29.8593 339.21 30.3003 337.488 30.5103L333.204 31.0143C331.104 31.2663 329.592 31.7703 328.668 32.5263C327.786 33.2403 327.345 34.2903 327.345 35.6763C327.345 37.0623 327.807 38.1543 328.731 38.9523C329.697 39.7083 331.062 40.0863 332.826 40.0863Z" fill="currentColor"></path>
<path d="M315.845 44.9996H307.907V0.143555H315.845V44.9996Z" fill="currentColor"></path>
<path d="M294.777 30.6992V12.4922H302.715V45.0002H295.029V40.2752C292.551 43.9292 289.149 45.7562 284.823 45.7562C281.337 45.7562 278.565 44.7482 276.507 42.7322C274.491 40.6742 273.483 37.7762 273.483 34.0382V12.4922H281.421V32.7152C281.421 36.8312 283.458 38.8892 287.532 38.8892C289.548 38.8892 291.249 38.1752 292.635 36.7472C294.063 35.2772 294.777 33.2612 294.777 30.6992Z" fill="currentColor"></path>
<path d="M257.956 11.7363C261.526 11.7363 264.298 12.7863 266.272 14.8863C268.288 16.9863 269.296 19.8633 269.296 23.5173V45.0003H261.358V24.7773C261.358 20.6613 259.489 18.6033 255.751 18.6033C253.735 18.6033 252.097 19.3383 250.837 20.8083C249.619 22.2363 249.01 24.3363 249.01 27.1083V45.0003H241.135V24.7773C241.135 20.6613 239.245 18.6033 235.465 18.6033C233.491 18.6033 231.874 19.3383 230.614 20.8083C229.396 22.2363 228.787 24.3363 228.787 27.1083V45.0003H220.849V12.4923H228.535V17.1543C230.761 13.5423 233.848 11.7363 237.796 11.7363C242.752 11.7363 246.112 13.7523 247.876 17.7843C250.312 13.7523 253.672 11.7363 257.956 11.7363Z" fill="currentColor"></path>
<path d="M215.871 11.9883C216.585 11.9883 217.236 12.0303 217.824 12.1143V19.4223H215.808C212.784 19.4223 210.453 20.1993 208.815 21.7533C207.219 23.2653 206.421 25.5123 206.421 28.4943V45.0003H198.483V12.4923H206.169V18.2883C207.975 14.0883 211.209 11.9883 215.871 11.9883Z" fill="currentColor"></path>
<path d="M185.355 30.6992V12.4922H193.293V45.0002H185.607V40.2752C183.129 43.9292 179.727 45.7562 175.401 45.7562C171.915 45.7562 169.143 44.7482 167.085 42.7322C165.069 40.6742 164.061 37.7762 164.061 34.0382V12.4922H171.999V32.7152C171.999 36.8312 174.036 38.8892 178.11 38.8892C180.126 38.8892 181.827 38.1752 183.213 36.7472C184.641 35.2772 185.355 33.2612 185.355 30.6992Z" fill="currentColor"></path>
<path d="M161.139 28.7463C161.139 33.8703 159.627 37.9863 156.603 41.0943C153.579 44.2023 149.589 45.7563 144.633 45.7563C139.677 45.7563 135.687 44.2023 132.663 41.0943C129.597 38.0283 128.064 33.9123 128.064 28.7463C128.064 23.5803 129.597 19.4643 132.663 16.3983C135.687 13.2903 139.677 11.7363 144.633 11.7363C149.589 11.7363 153.579 13.2693 156.603 16.3353C159.627 19.4013 161.139 23.5383 161.139 28.7463ZM138.396 36.4953C139.908 38.3013 141.987 39.2043 144.633 39.2043C147.279 39.2043 149.337 38.3013 150.807 36.4953C152.319 34.6473 153.075 32.0643 153.075 28.7463C153.075 25.4283 152.319 22.8663 150.807 21.0603C149.337 19.2123 147.279 18.2883 144.633 18.2883C141.987 18.2883 139.908 19.1913 138.396 20.9973C136.926 22.8033 136.191 25.3863 136.191 28.7463C136.191 32.1063 136.926 34.6893 138.396 36.4953Z" fill="currentColor"></path>
<path d="M127.343 0.143555V7.76655H104.159V18.3506H125.264V25.6586H104.159V44.9996H95.6543V0.143555H127.343Z" fill="currentColor"></path>
</svg>